{
.appVersion = "99";
DisplayStrings = (
"/S_T"
);
date = "2020-05-26 02:36:25 +0000";
familyName = "KRAKOAN beta";
featurePrefixes = (
{
automatic = 1;
code = "languagesystem DFLT dflt;\012";
name = Languagesystems;
}
);
features = (
{
automatic = 1;
code = "sub C H by C_H;\012sub S T by S_T;\012sub T H by T_H;\012";
name = dlig;
}
);
fontMaster = (
{
ascender = 960;
capHeight = 960;
descender = -40;
id = "D6F9CC2F-C077-49A9-BFA8-F00490525EAB";
weightValue = 0;
widthValue = 0;
xHeight = 500;
}
);
glyphs = (
{
glyphname = A;
lastChange = "2020-05-26 03:18:29 +0000";
layers = (
{
layerId = "D6F9CC2F-C077-49A9-BFA8-F00490525EAB";
paths = (
{
closed = 1;
nodes = (
"241.505 -0.208 LINE",
"402.505 -0.208 LINE",
"402.505 160.792 LINE",
"241.505 160.792 LINE"
);
},
{
closed = 1;
nodes = (
"442.755 804.792 LINE",
"603.755 804.792 LINE",
"603.755 965.792 LINE",
"442.755 965.792 LINE"
);
},
{
closed = 1;
nodes = (
"483.005 571.71 OFFCURVE",
"410.923 643.792 OFFCURVE",
"322.005 643.792 CURVE",
"233.087 643.792 OFFCURVE",
"161.005 571.71 OFFCURVE",
"161.005 482.792 CURVE",
"161.005 393.874 OFFCURVE",
"233.087 321.792 OFFCURVE",
"322.005 321.792 CURVE",
"410.923 321.792 OFFCURVE",
"483.005 393.874 OFFCURVE",
"483.005 482.792 CURVE"
);
},
{
closed = 1;
nodes = (
"603.755 327.185 OFFCURVE",
"477.611 201.042 OFFCURVE",
"322.005 201.042 CURVE",
"166.398 201.042 OFFCURVE",
"40.255 327.185 OFFCURVE",
"40.255 482.792 CURVE",
"40.255 638.398 OFFCURVE",
"166.398 764.542 OFFCURVE",
"322.005 764.542 CURVE",
"477.611 764.542 OFFCURVE",
"603.755 638.398 OFFCURVE",
"603.755 482.792 CURVE"
);
},
{
closed = 1;
nodes = (
"40.255 804.792 LINE",
"201.255 804.792 LINE",
"201.255 965.792 LINE",
"40.255 965.792 LINE"
);
}
);
width = 644;
}
);
unicode = 0041;
},
{
glyphname = B;
lastChange = "2020-05-26 03:19:31 +0000";
layers = (
{
layerId = "D6F9CC2F-C077-49A9-BFA8-F00490525EAB";
paths = (
{
closed = 1;
nodes = (
"40.265 201.042 LINE",
"603.765 201.042 LINE",
"603.765 362.042 LINE",
"40.265 362.042 LINE"
);
},
{
closed = 1;
nodes = (
"40.265 402.292 LINE",
"603.765 402.292 LINE",
"603.765 563.292 LINE",
"40.265 563.292 LINE"
);
},
{
closed = 1;
nodes = (
"567.724 -0.208 OFFCURVE",
"603.765 35.833 OFFCURVE",
"603.765 80.292 CURVE",
"603.765 124.751 OFFCURVE",
"567.724 160.792 OFFCURVE",
"523.265 160.792 CURVE",
"478.806 160.792 OFFCURVE",
"442.765 124.751 OFFCURVE",
"442.765 80.292 CURVE",
"442.765 35.833 OFFCURVE",
"478.806 -0.208 OFFCURVE",
"523.265 -0.208 CURVE"
);
},
{
closed = 1;
nodes = (
"201.265 35.833 OFFCURVE",
"165.224 -0.208 OFFCURVE",
"120.765 -0.208 CURVE",
"76.306 -0.208 OFFCURVE",
"40.265 35.833 OFFCURVE",
"40.265 80.292 CURVE",
"40.265 124.751 OFFCURVE",
"76.306 160.792 OFFCURVE",
"120.765 160.792 CURVE",
"165.224 160.792 OFFCURVE",
"201.265 124.751 OFFCURVE",
"201.265 80.292 CURVE"
);
},
{
closed = 1;
nodes = (
"366.474 603.542 OFFCURVE",
"402.515 639.583 OFFCURVE",
"402.515 684.042 CURVE",
"402.515 728.501 OFFCURVE",
"366.474 764.542 OFFCURVE",
"322.015 764.542 CURVE",
"277.556 764.542 OFFCURVE",
"241.515 728.501 OFFCURVE",
"241.515 684.042 CURVE",
"241.515 639.583 OFFCURVE",
"277.556 603.542 OFFCURVE",
"322.015 603.542 CURVE"
);
},
{
closed = 1;
nodes = (
"366.474 804.792 OFFCURVE",
"402.515 840.833 OFFCURVE",
"402.515 885.292 CURVE",
"402.515 929.751 OFFCURVE",
"366.474 965.792 OFFCURVE",
"322.015 965.792 CURVE",
"277.556 965.792 OFFCURVE",
"241.515 929.751 OFFCURVE",
"241.515 885.292 CURVE",
"241.515 840.833 OFFCURVE",
"277.556 804.792 OFFCURVE",
"322.015 804.792 CURVE"
);
}
);
width = 644;
}
);
unicode = 0042;
},
{
glyphname = C;
lastChange = "2020-05-26 03:19:53 +0000";
layers = (
{
layerId = "D6F9CC2F-C077-49A9-BFA8-F00490525EAB";
paths = (
{
closed = 1;
nodes = (
"241.505 -0.208 LINE",
"402.505 -0.208 LINE",
"402.505 160.792 LINE",
"241.505 160.792 LINE"
);
},
{
closed = 1;
nodes = (
"322.005 201.042 LINE",
"166.399 201.042 OFFCURVE",
"40.255 327.185 OFFCURVE",
"40.255 482.792 CURVE",
"40.255 638.398 OFFCURVE",
"166.399 764.542 OFFCURVE",
"322.005 764.542 CURVE",
"399.808 764.542 OFFCURVE",
"470.246 733.003 OFFCURVE",
"521.231 682.018 CURVE",
"435.849 596.636 LINE",
"406.714 625.771 OFFCURVE",
"366.464 643.792 OFFCURVE",
"322.005 643.792 CURVE",
"233.087 643.792 OFFCURVE",
"161.005 571.71 OFFCURVE",
"161.005 482.792 CURVE",
"161.005 393.874 OFFCURVE",
"233.087 321.792 OFFCURVE",
"322.005 321.792 CURVE"
);
},
{
closed = 1;
nodes = (
"40.255 804.792 LINE",
"603.755 804.792 LINE",
"603.755 965.792 LINE",
"40.255 965.792 LINE"
);
}
);
width = 644;
}
);
unicode = 0043;
},
{
glyphname = D;
lastChange = "2020-05-26 03:20:04 +0000";
layers = (
{
layerId = "D6F9CC2F-C077-49A9-BFA8-F00490525EAB";
paths = (
{
closed = 1;
nodes = (
"201.255 201.042 LINE",
"442.755 201.042 LINE",
"603.755 201.042 LINE",
"603.755 362.042 LINE",
"603.755 603.542 LINE",
"603.755 764.542 LINE",
"442.755 764.542 LINE",
"201.255 764.542 LINE",
"40.255 764.542 LINE",
"40.255 603.542 LINE",
"40.255 362.042 LINE",
"40.255 201.042 LINE"
);
},
{
closed = 1;
nodes = (
"442.755 603.542 LINE",
"442.755 362.042 LINE",
"201.255 362.042 LINE",
"201.255 603.542 LINE"
);
},
{
closed = 1;
nodes = (
"402.505 35.833 OFFCURVE",
"366.464 -0.208 OFFCURVE",
"322.005 -0.208 CURVE",
"277.546 -0.208 OFFCURVE",
"241.505 35.833 OFFCURVE",
"241.505 80.292 CURVE",
"241.505 124.751 OFFCURVE",
"277.546 160.792 OFFCURVE",
"322.005 160.792 CURVE",
"366.464 160.792 OFFCURVE",
"402.505 124.751 OFFCURVE",
"402.505 80.292 CURVE"
);
},
{
closed = 1;
nodes = (
"402.505 840.833 OFFCURVE",
"366.464 804.792 OFFCURVE",
"322.005 804.792 CURVE",
"277.546 804.792 OFFCURVE",
"241.505 840.833 OFFCURVE",
"241.505 885.292 CURVE",
"241.505 929.751 OFFCURVE",
"277.546 965.792 OFFCURVE",
"322.005 965.792 CURVE",
"366.464 965.792 OFFCURVE",
"402.505 929.751 OFFCURVE",
"402.505 885.292 CURVE"
);
}
);
width = 644;
}
);
unicode = 0044;
},
{
glyphname = E;
lastChange = "2020-05-26 03:20:04 +0000";
layers = (
{
layerId = "D6F9CC2F-C077-49A9-BFA8-F00490525EAB";
paths = (
{
closed = 1;
nodes = (
"40.251 201.698 LINE",
"603.751 201.698 LINE",
"603.751 362.698 LINE",
"40.251 362.698 LINE"
);
},
{
closed = 1;
nodes = (
"40.251 402.948 LINE",
"603.751 402.948 LINE",
"603.751 563.948 LINE",
"40.251 563.948 LINE"
);
},
{
closed = 1;
nodes = (
"40.251 604.198 LINE",
"603.751 604.198 LINE",
"603.751 765.198 LINE",
"40.251 765.198 LINE"
);
},
{
closed = 1;
nodes = (
"402.501 36.489 OFFCURVE",
"366.46 0.448 OFFCURVE",
"322.001 0.448 CURVE",
"277.542 0.448 OFFCURVE",
"241.501 36.489 OFFCURVE",
"241.501 80.948 CURVE",
"241.501 125.407 OFFCURVE",
"277.542 161.448 OFFCURVE",
"322.001 161.448 CURVE",
"366.46 161.448 OFFCURVE",
"402.501 125.407 OFFCURVE",
"402.501 80.948 CURVE"
);
},
{
closed = 1;
nodes = (
"402.501 841.489 OFFCURVE",
"366.46 805.448 OFFCURVE",
"322.001 805.448 CURVE",
"277.542 805.448 OFFCURVE",
"241.501 841.489 OFFCURVE",
"241.501 885.948 CURVE",
"241.501 930.407 OFFCURVE",
"277.542 966.448 OFFCURVE",
"322.001 966.448 CURVE",
"366.46 966.448 OFFCURVE",
"402.501 930.407 OFFCURVE",
"402.501 885.948 CURVE"
);
}
);
width = 644;
}
);
unicode = 0045;
},
{
glyphname = F;
lastChange = "2020-05-26 03:20:09 +0000";
layers = (
{
layerId = "D6F9CC2F-C077-49A9-BFA8-F00490525EAB";
paths = (
{
closed = 1;
nodes = (
"40.252 402.748 LINE",
"603.752 402.748 LINE",
"603.752 563.748 LINE",
"40.252 563.748 LINE"
);
},
{
closed = 1;
nodes = (
"40.252 603.998 LINE",
"603.752 603.998 LINE",
"603.752 764.998 LINE",
"40.252 764.998 LINE"
);
},
{
closed = 1;
nodes = (
"366.449 0.248 OFFCURVE",
"402.502 36.289 OFFCURVE",
"402.502 80.748 CURVE",
"402.502 125.207 OFFCURVE",
"366.449 161.248 OFFCURVE",
"322.002 161.248 CURVE",
"277.555 161.248 OFFCURVE",
"241.502 125.207 OFFCURVE",
"241.502 80.748 CURVE",
"241.502 36.289 OFFCURVE",
"277.555 0.248 OFFCURVE",
"322.002 0.248 CURVE"
);
},
{
closed = 1;
nodes = (
"402.502 237.539 OFFCURVE",
"366.449 201.498 OFFCURVE",
"322.002 201.498 CURVE",
"277.555 201.498 OFFCURVE",
"241.502 237.539 OFFCURVE",
"241.502 281.998 CURVE",
"241.502 326.457 OFFCURVE",
"277.555 362.498 OFFCURVE",
"322.002 362.498 CURVE",
"366.449 362.498 OFFCURVE",
"402.502 326.457 OFFCURVE",
"402.502 281.998 CURVE"
);
},
{
closed = 1;
nodes = (
"567.699 805.248 OFFCURVE",
"603.752 841.289 OFFCURVE",
"603.752 885.748 CURVE",
"603.752 930.207 OFFCURVE",
"567.699 966.248 OFFCURVE",
"523.252 966.248 CURVE",
"478.805 966.248 OFFCURVE",
"442.752 930.207 OFFCURVE",
"442.752 885.748 CURVE",
"442.752 841.289 OFFCURVE",
"478.805 805.248 OFFCURVE",
"523.252 805.248 CURVE"
);
},
{
closed = 1;
nodes = (
"165.199 805.248 OFFCURVE",
"201.252 841.289 OFFCURVE",
"201.252 885.748 CURVE",
"201.252 930.207 OFFCURVE",
"165.199 966.248 OFFCURVE",
"120.752 966.248 CURVE",
"76.305 966.248 OFFCURVE",
"40.252 930.207 OFFCURVE",
"40.252 885.748 CURVE",
"40.252 841.289 OFFCURVE",
"76.305 805.248 OFFCURVE",
"120.752 805.248 CURVE"
);
}
);
width = 644;
}
);
unicode = 0046;
},
{
glyphname = G;
lastChange = "2020-05-26 03:20:09 +0000";
layers = (
{
layerId = "D6F9CC2F-C077-49A9-BFA8-F00490525EAB";
paths = (
{
closed = 1;
nodes = (
"603.745 482.792 LINE",
"603.745 638.398 OFFCURVE",
"477.591 764.542 OFFCURVE",
"321.995 764.542 CURVE",
"166.4 764.542 OFFCURVE",
"40.245 638.398 OFFCURVE",
"40.245 482.792 CURVE",
"160.995 482.792 LINE",
"160.995 571.71 OFFCURVE",
"233.1 643.792 OFFCURVE",
"321.995 643.792 CURVE",
"410.89 643.792 OFFCURVE",
"482.995 571.71 OFFCURVE",
"482.995 482.792 CURVE"
);
},
{
closed = 1;
nodes = (
"366.442 -0.208 OFFCURVE",
"402.495 35.833 OFFCURVE",
"402.495 80.292 CURVE",
"402.495 124.751 OFFCURVE",
"366.442 160.792 OFFCURVE",
"321.995 160.792 CURVE",
"277.548 160.792 OFFCURVE",
"241.495 124.751 OFFCURVE",
"241.495 80.292 CURVE",
"241.495 35.833 OFFCURVE",
"277.548 -0.208 OFFCURVE",
"321.995 -0.208 CURVE"
);
},
{
closed = 1;
nodes = (
"388.695 362.042 OFFCURVE",
"442.745 416.104 OFFCURVE",
"442.745 482.792 CURVE",
"442.745 549.48 OFFCURVE",
"388.695 603.542 OFFCURVE",
"321.995 603.542 CURVE",
"255.295 603.542 OFFCURVE",
"201.245 549.48 OFFCURVE",
"201.245 482.792 CURVE",
"201.245 416.104 OFFCURVE",
"255.295 362.042 OFFCURVE",
"321.995 362.042 CURVE"
);
},
{
closed = 1;
nodes = (
"241.495 804.792 LINE",
"402.495 804.792 LINE",
"402.495 965.792 LINE",
"241.495 965.792 LINE"
);
}
);
width = 644;
}
);
unicode = 0047;
},
{
glyphname = H;
lastChange = "2020-05-26 03:20:09 +0000";
layers = (
{
layerId = "D6F9CC2F-C077-49A9-BFA8-F00490525EAB";
paths = (
{
closed = 1;
nodes = (
"603.745 482.792 LINE",
"603.745 638.398 OFFCURVE",
"477.591 764.542 OFFCURVE",
"321.995 764.542 CURVE",
"166.399 764.542 OFFCURVE",
"40.245 638.398 OFFCURVE",
"40.245 482.792 CURVE",
"160.995 482.792 LINE",
"160.995 571.71 OFFCURVE",
"233.1 643.792 OFFCURVE",
"321.995 643.792 CURVE",
"410.89 643.792 OFFCURVE",
"482.995 571.71 OFFCURVE",
"482.995 482.792 CURVE"
);
},
{
closed = 1;
nodes = (
"603.745 840.833 OFFCURVE",
"567.692 804.792 OFFCURVE",
"523.245 804.792 CURVE",
"478.798 804.792 OFFCURVE",
"442.745 840.833 OFFCURVE",
"442.745 885.292 CURVE",
"442.745 929.751 OFFCURVE",
"478.798 965.792 OFFCURVE",
"523.245 965.792 CURVE",
"567.692 965.792 OFFCURVE",
"603.745 929.751 OFFCURVE",
"603.745 885.292 CURVE"
);
},
{
closed = 1;
nodes = (
"402.495 35.833 OFFCURVE",
"366.442 -0.208 OFFCURVE",
"321.995 -0.208 CURVE",
"277.548 -0.208 OFFCURVE",
"241.495 35.833 OFFCURVE",
"241.495 80.292 CURVE",
"241.495 124.751 OFFCURVE",
"277.548 160.792 OFFCURVE",
"321.995 160.792 CURVE",
"366.442 160.792 OFFCURVE",
"402.495 124.751 OFFCURVE",
"402.495 80.292 CURVE"
);
},
{
closed = 1;
nodes = (
"402.495 840.833 OFFCURVE",
"366.442 804.792 OFFCURVE",
"321.995 804.792 CURVE",
"277.548 804.792 OFFCURVE",
"241.495 840.833 OFFCURVE",
"241.495 885.292 CURVE",
"241.495 929.751 OFFCURVE",
"277.548 965.792 OFFCURVE",
"321.995 965.792 CURVE",
"366.442 965.792 OFFCURVE",
"402.495 929.751 OFFCURVE",
"402.495 885.292 CURVE"
);
},
{
closed = 1;
nodes = (
"165.192 804.792 OFFCURVE",
"201.245 840.833 OFFCURVE",
"201.245 885.292 CURVE",
"201.245 929.751 OFFCURVE",
"165.192 965.792 OFFCURVE",
"120.745 965.792 CURVE",
"76.298 965.792 OFFCURVE",
"40.245 929.751 OFFCURVE",
"40.245 885.292 CURVE",
"40.245 840.833 OFFCURVE",
"76.298 804.792 OFFCURVE",
"120.745 804.792 CURVE"
);
}
);
width = 644;
}
);
unicode = 0048;
},
{
glyphname = I;
lastChange = "2020-05-26 03:20:09 +0000";
layers = (
{
layerId = "D6F9CC2F-C077-49A9-BFA8-F00490525EAB";
paths = (
{
closed = 1;
nodes = (
"241.505 -0.208 LINE",
"402.505 -0.208 LINE",
"402.505 160.792 LINE",
"241.505 160.792 LINE"
);
},
{
closed = 1;
nodes = (
"388.705 362.042 OFFCURVE",
"442.755 416.103 OFFCURVE",
"442.755 482.792 CURVE",
"442.755 549.48 OFFCURVE",
"388.705 603.542 OFFCURVE",
"322.005 603.542 CURVE",
"255.305 603.542 OFFCURVE",
"201.255 549.48 OFFCURVE",
"201.255 482.792 CURVE",
"201.255 416.103 OFFCURVE",
"255.305 362.042 OFFCURVE",
"322.005 362.042 CURVE"
);
},
{
closed = 1;
nodes = (
"483.005 571.71 OFFCURVE",
"410.9 643.792 OFFCURVE",
"322.005 643.792 CURVE",
"233.11 643.792 OFFCURVE",
"161.005 571.71 OFFCURVE",
"161.005 482.792 CURVE",
"161.005 393.874 OFFCURVE",
"233.11 321.792 OFFCURVE",
"322.005 321.792 CURVE",
"410.9 321.792 OFFCURVE",
"483.005 393.874 OFFCURVE",
"483.005 482.792 CURVE"
);
},
{
closed = 1;
nodes = (
"603.755 327.185 OFFCURVE",
"477.601 201.042 OFFCURVE",
"322.005 201.042 CURVE",
"166.409 201.042 OFFCURVE",
"40.255 327.185 OFFCURVE",
"40.255 482.792 CURVE",
"40.255 638.398 OFFCURVE",
"166.409 764.542 OFFCURVE",
"322.005 764.542 CURVE",
"477.601 764.542 OFFCURVE",
"603.755 638.398 OFFCURVE",
"603.755 482.792 CURVE"
);
},
{
closed = 1;
nodes = (
"241.505 804.792 LINE",
"402.505 804.792 LINE",
"402.505 965.792 LINE",
"241.505 965.792 LINE"
);
}
);
width = 644;
}
);
unicode = 0049;
},
{
glyphname = J;
lastChange = "2020-05-26 03:20:09 +0000";
layers = (
{
layerId = "D6F9CC2F-C077-49A9-BFA8-F00490525EAB";
paths = (
{
closed = 1;
nodes = (
"442.745 -0.208 LINE",
"603.745 -0.208 LINE",
"603.745 160.792 LINE",
"442.745 160.792 LINE"
);
},
{
closed = 1;
nodes = (
"122.758 682.018 LINE",
"12.76 571.992 OFFCURVE",
"12.76 393.592 OFFCURVE",
"122.758 283.566 CURVE",
"232.812 173.534 OFFCURVE",
"411.178 173.534 OFFCURVE",
"521.232 283.566 CURVE",
"631.23 393.592 OFFCURVE",
"631.23 571.992 OFFCURVE",
"521.232 682.018 CURVE",
"435.846 596.636 LINE",
"498.692 533.76 OFFCURVE",
"498.692 431.824 OFFCURVE",
"435.846 368.948 CURVE",
"372.94 306.071 OFFCURVE",
"271.05 306.071 OFFCURVE",
"208.144 368.948 CURVE",
"145.298 431.824 OFFCURVE",
"145.298 533.76 OFFCURVE",
"208.144 596.636 CURVE"
);
},
{
closed = 1;
nodes = (
"40.245 -0.208 LINE",
"201.245 -0.208 LINE",
"201.245 160.792 LINE",
"40.245 160.792 LINE"
);
},
{
closed = 1;
nodes = (
"402.495 639.583 OFFCURVE",
"366.442 603.542 OFFCURVE",
"321.995 603.542 CURVE",
"277.548 603.542 OFFCURVE",
"241.495 639.583 OFFCURVE",
"241.495 684.042 CURVE",
"241.495 728.501 OFFCURVE",
"277.548 764.542 OFFCURVE",
"321.995 764.542 CURVE",
"366.442 764.542 OFFCURVE",
"402.495 728.501 OFFCURVE",
"402.495 684.042 CURVE"
);
},
{
closed = 1;
nodes = (
"402.495 840.833 OFFCURVE",
"366.442 804.792 OFFCURVE",
"321.995 804.792 CURVE",
"277.548 804.792 OFFCURVE",
"241.495 840.833 OFFCURVE",
"241.495 885.292 CURVE",
"241.495 929.751 OFFCURVE",
"277.548 965.792 OFFCURVE",
"321.995 965.792 CURVE",
"366.442 965.792 OFFCURVE",
"402.495 929.751 OFFCURVE",
"402.495 885.292 CURVE"
);
}
);
width = 644;
}
);
unicode = 004A;
},
{
glyphname = K;
lastChange = "2020-05-26 03:20:09 +0000";
layers = (
{
layerId = "D6F9CC2F-C077-49A9-BFA8-F00490525EAB";
paths = (
{
closed = 1;
nodes = (
"442.755 804.792 LINE",
"603.755 804.792 LINE",
"603.755 965.792 LINE",
"442.755 965.792 LINE"
);
},
{
closed = 1;
nodes = (
"40.255 804.792 LINE",
"201.255 804.792 LINE",
"201.255 965.792 LINE",
"40.255 965.792 LINE"
);
},
{
closed = 1;
nodes = (
"40.255 603.542 LINE",
"603.755 603.542 LINE",
"603.755 764.542 LINE",
"40.255 764.542 LINE"
);
},
{
closed = 1;
nodes = (
"40.255 201.042 LINE",
"603.755 201.042 LINE",
"603.755 362.042 LINE",
"40.255 362.042 LINE"
);
},
{
closed = 1;
nodes = (
"442.755 -0.208 LINE",
"603.755 -0.208 LINE",
"603.755 160.792 LINE",
"442.755 160.792 LINE"
);
},
{
closed = 1;
nodes = (
"40.255 -0.208 LINE",
"201.255 -0.208 LINE",
"201.255 160.792 LINE",
"40.255 160.792 LINE"
);
}
);
width = 644;
}
);
unicode = 004B;
},
{
glyphname = L;
lastChange = "2020-05-26 03:20:09 +0000";
layers = (
{
layerId = "D6F9CC2F-C077-49A9-BFA8-F00490525EAB";
paths = (
{
closed = 1;
nodes = (
"603.745 482.792 LINE",
"603.745 638.398 OFFCURVE",
"477.591 764.542 OFFCURVE",
"321.995 764.542 CURVE",
"166.399 764.542 OFFCURVE",
"40.245 638.398 OFFCURVE",
"40.245 482.792 CURVE",
"160.995 482.792 LINE",
"160.995 571.71 OFFCURVE",
"233.1 643.792 OFFCURVE",
"321.995 643.792 CURVE",
"410.89 643.792 OFFCURVE",
"482.995 571.71 OFFCURVE",
"482.995 482.792 CURVE"
);
},
{
closed = 1;
nodes = (
"241.495 -0.208 LINE",
"402.495 -0.208 LINE",
"402.495 160.792 LINE",
"241.495 160.792 LINE"
);
},
{
closed = 1;
nodes = (
"241.495 201.042 LINE",
"402.495 201.042 LINE",
"402.495 362.042 LINE",
"241.495 362.042 LINE"
);
},
{
closed = 1;
nodes = (
"366.442 804.792 OFFCURVE",
"402.495 840.833 OFFCURVE",
"402.495 885.292 CURVE",
"402.495 929.751 OFFCURVE",
"366.442 965.792 OFFCURVE",
"321.995 965.792 CURVE",
"277.548 965.792 OFFCURVE",
"241.495 929.751 OFFCURVE",
"241.495 885.292 CURVE",
"241.495 840.833 OFFCURVE",
"277.548 804.792 OFFCURVE",
"321.995 804.792 CURVE"
);
}
);
width = 644;
}
);
unicode = 004C;
},
{
glyphname = M;
lastChange = "2020-05-26 03:20:09 +0000";
layers = (
{
layerId = "D6F9CC2F-C077-49A9-BFA8-F00490525EAB";
paths = (
{
closed = 1;
nodes = (
"201.255 482.792 LINE",
"201.255 416.104 OFFCURVE",
"255.305 362.042 OFFCURVE",
"322.005 362.042 CURVE",
"388.705 362.042 OFFCURVE",
"442.755 416.104 OFFCURVE",
"442.755 482.792 CURVE"
);
},
{
closed = 1;
nodes = (
"366.452 -0.208 OFFCURVE",
"402.505 35.833 OFFCURVE",
"402.505 80.292 CURVE",
"402.505 124.751 OFFCURVE",
"366.452 160.792 OFFCURVE",
"322.005 160.792 CURVE",
"277.558 160.792 OFFCURVE",
"241.505 124.751 OFFCURVE",
"241.505 80.292 CURVE",
"241.505 35.833 OFFCURVE",
"277.558 -0.208 OFFCURVE",
"322.005 -0.208 CURVE"
);
},
{
closed = 1;
nodes = (
"40.255 403.821 OFFCURVE",
"72.742 332.436 OFFCURVE",
"125.067 281.283 CURVE",
"210.455 366.671 LINE",
"179.981 395.973 OFFCURVE",
"161.005 437.166 OFFCURVE",
"161.005 482.792 CURVE",
"161.005 571.71 OFFCURVE",
"233.11 643.792 OFFCURVE",
"322.005 643.792 CURVE",
"410.9 643.792 OFFCURVE",
"483.005 571.71 OFFCURVE",
"483.005 482.792 CURVE",
"483.005 439.5 OFFCURVE",
"465.928 400.205 OFFCURVE",
"438.097 371.271 CURVE",
"523.543 285.878 LINE",
"573.165 336.667 OFFCURVE",
"603.755 406.156 OFFCURVE",
"603.755 482.792 CURVE",
"603.755 638.398 OFFCURVE",
"477.601 764.542 OFFCURVE",
"322.005 764.542 CURVE",
"166.409 764.542 OFFCURVE",
"40.255 638.398 OFFCURVE",
"40.255 482.792 CURVE"
);
},
{
closed = 1;
nodes = (
"40.255 804.792 LINE",
"603.755 804.792 LINE",
"603.755 965.792 LINE",
"40.255 965.792 LINE"
);
}
);
width = 644;
}
);
unicode = 004D;
},
{
glyphname = N;
lastChange = "2020-05-26 03:20:09 +0000";
layers = (
{
layerId = "D6F9CC2F-C077-49A9-BFA8-F00490525EAB";
paths = (
{
closed = 1;
nodes = (
"402.495 35.833 OFFCURVE",
"366.442 -0.208 OFFCURVE",
"321.995 -0.208 CURVE",
"277.548 -0.208 OFFCURVE",
"241.495 35.833 OFFCURVE",
"241.495 80.292 CURVE",
"241.495 124.751 OFFCURVE",
"277.548 160.792 OFFCURVE",
"321.995 160.792 CURVE",
"366.442 160.792 OFFCURVE",
"402.495 124.751 OFFCURVE",
"402.495 80.292 CURVE"
);
},
{
closed = 1;
nodes = (
"125.058 281.283 LINE",
"72.732 332.436 OFFCURVE",
"40.245 403.821 OFFCURVE",
"40.245 482.792 CURVE",
"40.245 638.398 OFFCURVE",
"166.399 764.542 OFFCURVE",
"321.995 764.542 CURVE",
"477.591 764.542 OFFCURVE",
"603.745 638.398 OFFCURVE",
"603.745 482.792 CURVE",
"603.745 406.156 OFFCURVE",
"573.154 336.667 OFFCURVE",
"523.533 285.878 CURVE",
"438.087 371.271 LINE",
"465.918 400.205 OFFCURVE",
"482.995 439.5 OFFCURVE",
"482.995 482.792 CURVE",
"482.995 571.71 OFFCURVE",
"410.89 643.792 OFFCURVE",
"321.995 643.792 CURVE",
"233.1 643.792 OFFCURVE",
"160.995 571.71 OFFCURVE",
"160.995 482.792 CURVE",
"160.995 437.166 OFFCURVE",
"179.971 395.973 OFFCURVE",
"210.445 366.671 CURVE"
);
},
{
closed = 1;
nodes = (
"40.245 804.792 LINE",
"603.745 804.792 LINE",
"603.745 965.792 LINE",
"40.245 965.792 LINE"
);
}
);
width = 644;
}
);
unicode = 004E;
},
{
glyphname = O;
lastChange = "2020-05-26 03:20:09 +0000";
layers = (
{
layerId = "D6F9CC2F-C077-49A9-BFA8-F00490525EAB";
paths = (
{
closed = 1;
nodes = (
"40.245 805 LINE",
"603.745 805 LINE",
"603.745 966 LINE",
"40.245 966 LINE"
);
},
{
closed = 1;
nodes = (
"442.745 764.75 LINE",
"201.245 764.75 LINE",
"40.245 764.75 LINE",
"40.245 603.75 LINE",
"40.245 362.25 LINE",
"40.245 201.25 LINE",
"201.245 201.25 LINE",
"442.745 201.25 LINE",
"603.745 201.25 LINE",
"603.745 764.75 LINE"
);
},
{
closed = 1;
nodes = (
"442.745 603.75 LINE",
"442.745 362.25 LINE",
"201.245 362.25 LINE",
"201.245 603.75 LINE"
);
},
{
closed = 1;
nodes = (
"40.245 0 LINE",
"603.745 0 LINE",
"603.745 161 LINE",
"40.245 161 LINE"
);
}
);
width = 644;
}
);
unicode = 004F;
},
{
glyphname = P;
lastChange = "2020-05-26 03:20:09 +0000";
layers = (
{
layerId = "D6F9CC2F-C077-49A9-BFA8-F00490525EAB";
paths = (
{
closed = 1;
nodes = (
"40.255 483 LINE",
"40.255 327.394 OFFCURVE",
"166.398 201.25 OFFCURVE",
"322.005 201.25 CURVE",
"477.611 201.25 OFFCURVE",
"603.755 327.394 OFFCURVE",
"603.755 483 CURVE",
"483.005 483 LINE",
"483.005 394.082 OFFCURVE",
"410.923 322 OFFCURVE",
"322.005 322 CURVE",
"233.087 322 OFFCURVE",
"161.005 394.082 OFFCURVE",
"161.005 483 CURVE"
);
},
{
closed = 1;
nodes = (
"366.464 0 OFFCURVE",
"402.505 36.041 OFFCURVE",
"402.505 80.5 CURVE",
"402.505 124.959 OFFCURVE",
"366.464 161 OFFCURVE",
"322.005 161 CURVE",
"277.546 161 OFFCURVE",
"241.505 124.959 OFFCURVE",
"241.505 80.5 CURVE",
"241.505 36.041 OFFCURVE",
"277.546 0 OFFCURVE",
"322.005 0 CURVE"
);
},
{
closed = 1;
nodes = (
"388.693 362.25 OFFCURVE",
"442.755 416.312 OFFCURVE",
"442.755 483 CURVE",
"442.755 549.688 OFFCURVE",
"388.693 603.75 OFFCURVE",
"322.005 603.75 CURVE",
"255.317 603.75 OFFCURVE",
"201.255 549.688 OFFCURVE",
"201.255 483 CURVE",
"201.255 416.312 OFFCURVE",
"255.317 362.25 OFFCURVE",
"322.005 362.25 CURVE"
);
},
{
closed = 1;
nodes = (
"40.255 805 LINE",
"603.755 805 LINE",
"603.755 966 LINE",
"40.255 966 LINE"
);
}
);
width = 644;
}
);
unicode = 0050;
},
{
glyphname = Q;
lastChange = "2020-05-26 03:20:09 +0000";
layers = (
{
layerId = "D6F9CC2F-C077-49A9-BFA8-F00490525EAB";
paths = (
{
closed = 1;
nodes = (
"40.245 201.25 LINE",
"603.745 201.25 LINE",
"603.745 362.25 LINE",
"40.245 362.25 LINE"
);
},
{
closed = 1;
nodes = (
"442.745 0 LINE",
"603.745 0 LINE",
"603.745 161 LINE",
"442.745 161 LINE"
);
},
{
closed = 1;
nodes = (
"40.245 0 LINE",
"201.245 0 LINE",
"201.245 161 LINE",
"40.245 161 LINE"
);
},
{
closed = 1;
nodes = (
"241.495 402.5 LINE",
"402.495 402.5 LINE",
"402.495 563.5 LINE",
"241.495 563.5 LINE"
);
},
{
closed = 1;
nodes = (
"402.495 841.041 OFFCURVE",
"366.454 805 OFFCURVE",
"321.995 805 CURVE",
"277.536 805 OFFCURVE",
"241.495 841.041 OFFCURVE",
"241.495 885.5 CURVE",
"241.495 929.959 OFFCURVE",
"277.536 966 OFFCURVE",
"321.995 966 CURVE",
"366.454 966 OFFCURVE",
"402.495 929.959 OFFCURVE",
"402.495 885.5 CURVE"
);
}
);
width = 644;
}
);
unicode = 0051;
},
{
glyphname = R;
lastChange = "2020-05-26 03:20:09 +0000";
layers = (
{
layerId = "D6F9CC2F-C077-49A9-BFA8-F00490525EAB";
paths = (
{
closed = 1;
nodes = (
"40.255 404.029 OFFCURVE",
"72.743 332.644 OFFCURVE",
"125.09 281.491 CURVE",
"210.484 366.879 LINE",
"179.986 396.181 OFFCURVE",
"161.005 437.374 OFFCURVE",
"161.005 483 CURVE",
"161.005 571.918 OFFCURVE",
"233.087 644 OFFCURVE",
"322.005 644 CURVE",
"410.923 644 OFFCURVE",
"483.005 571.918 OFFCURVE",
"483.005 483 CURVE",
"483.005 439.708 OFFCURVE",
"465.922 400.413 OFFCURVE",
"438.126 371.479 CURVE",
"523.514 286.086 LINE",
"573.159 336.875 OFFCURVE",
"603.755 406.364 OFFCURVE",
"603.755 483 CURVE",
"603.755 638.606 OFFCURVE",
"477.611 764.75 OFFCURVE",
"322.005 764.75 CURVE",
"166.399 764.75 OFFCURVE",
"40.255 638.606 OFFCURVE",
"40.255 483 CURVE"
);
},
{
closed = 1;
nodes = (
"442.755 0 LINE",
"603.755 0 LINE",
"603.755 161 LINE",
"442.755 161 LINE"
);
},
{
closed = 1;
nodes = (
"40.255 0 LINE",
"201.255 0 LINE",
"201.255 161 LINE",
"40.255 161 LINE"
);
},
{
closed = 1;
nodes = (
"241.505 805 LINE",
"402.505 805 LINE",
"402.505 966 LINE",
"241.505 966 LINE"
);
}
);
width = 644;
}
);
unicode = 0052;
},
{
glyphname = S;
lastChange = "2020-05-26 03:20:09 +0000";
layers = (
{
layerId = "D6F9CC2F-C077-49A9-BFA8-F00490525EAB";
paths = (
{
closed = 1;
nodes = (
"241.495 0 LINE",
"402.495 0 LINE",
"402.495 161 LINE",
"241.495 161 LINE"
);
},
{
closed = 1;
nodes = (
"321.995 201.25 LINE",
"477.601 201.25 OFFCURVE",
"603.745 327.393 OFFCURVE",
"603.745 483 CURVE",
"603.745 638.606 OFFCURVE",
"477.601 764.75 OFFCURVE",
"321.995 764.75 CURVE",
"244.192 764.75 OFFCURVE",
"173.754 733.211 OFFCURVE",
"122.769 682.227 CURVE",
"208.151 596.845 LINE",
"237.286 625.979 OFFCURVE",
"277.536 644 OFFCURVE",
"321.995 644 CURVE",
"410.913 644 OFFCURVE",
"482.995 571.918 OFFCURVE",
"482.995 483 CURVE",
"482.995 394.082 OFFCURVE",
"410.913 322 OFFCURVE",
"321.995 322 CURVE"
);
},
{
closed = 1;
nodes = (
"40.245 805 LINE",
"603.745 805 LINE",
"603.745 966 LINE",
"40.245 966 LINE"
);
}
);
width = 644;
}
);
unicode = 0053;
},
{
glyphname = T;
lastChange = "2020-05-26 03:20:09 +0000";
layers = (
{
layerId = "D6F9CC2F-C077-49A9-BFA8-F00490525EAB";
paths = (
{
closed = 1;
nodes = (
"241.505 805 LINE",
"402.505 805 LINE",
"402.505 966 LINE",
"241.505 966 LINE"
);
},
{
closed = 1;
nodes = (
"442.755 764.75 LINE",
"201.255 764.75 LINE",
"40.255 764.75 LINE",
"40.255 603.75 LINE",
"40.255 201.25 LINE",
"201.255 201.25 LINE",
"201.255 603.75 LINE",
"442.755 603.75 LINE",
"442.755 201.25 LINE",
"603.755 201.25 LINE",
"603.755 764.75 LINE"
);
},
{
closed = 1;
nodes = (
"442.755 0 LINE",
"603.755 0 LINE",
"603.755 161 LINE",
"442.755 161 LINE"
);
},
{
closed = 1;
nodes = (
"40.255 0 LINE",
"201.255 0 LINE",
"201.255 161 LINE",
"40.255 161 LINE"
);
}
);
width = 644;
}
);
unicode = 0054;
},
{
glyphname = U;
lastChange = "2020-05-26 03:20:09 +0000";
layers = (
{
layerId = "D6F9CC2F-C077-49A9-BFA8-F00490525EAB";
paths = (
{
closed = 1;
nodes = (
"40.245 764.75 LINE",
"40.245 603.75 LINE",
"40.245 362.25 LINE",
"40.245 201.25 LINE",
"201.245 201.25 LINE",
"442.745 201.25 LINE",
"603.745 201.25 LINE",
"603.745 764.75 LINE"
);
},
{
closed = 1;
nodes = (
"442.745 603.75 LINE",
"442.745 362.25 LINE",
"201.245 362.25 LINE",
"201.245 603.75 LINE"
);
},
{
closed = 1;
nodes = (
"241.495 402.5 LINE",
"402.495 402.5 LINE",
"402.495 563.5 LINE",
"241.495 563.5 LINE"
);
}
);
width = 644;
}
);
unicode = 0055;
},
{
glyphname = V;
lastChange = "2020-05-26 03:20:09 +0000";
layers = (
{
layerId = "D6F9CC2F-C077-49A9-BFA8-F00490525EAB";
paths = (
{
closed = 1;
nodes = (
"400.759 36.041 OFFCURVE",
"364.764 0 OFFCURVE",
"320.259 0 CURVE",
"275.812 0 OFFCURVE",
"239.759 36.041 OFFCURVE",
"239.759 80.5 CURVE",
"239.759 124.959 OFFCURVE",
"275.812 161 OFFCURVE",
"320.259 161 CURVE",
"364.764 161 OFFCURVE",
"400.759 124.959 OFFCURVE",
"400.759 80.5 CURVE"
);
},
{
closed = 1;
nodes = (
"441.009 416.311 OFFCURVE",
"386.96 362.25 OFFCURVE",
"320.259 362.25 CURVE",
"253.617 362.25 OFFCURVE",
"199.509 416.311 OFFCURVE",
"199.509 483 CURVE",
"199.509 549.687 OFFCURVE",
"253.617 603.75 OFFCURVE",
"320.259 603.75 CURVE",
"386.96 603.75 OFFCURVE",
"441.009 549.687 OFFCURVE",
"441.009 483 CURVE"
);
},
{
closed = 1;
nodes = (
"12.749 392.098 OFFCURVE",
"12.749 570.491 OFFCURVE",
"122.747 680.523 CURVE",
"208.134 595.142 LINE",
"145.287 532.266 OFFCURVE",
"145.287 430.324 OFFCURVE",
"208.134 367.453 CURVE",
"271.039 304.577 OFFCURVE",
"372.93 304.577 OFFCURVE",
"435.835 367.453 CURVE",
"498.682 430.324 OFFCURVE",
"498.682 532.266 OFFCURVE",
"435.835 595.142 CURVE",
"521.222 680.523 LINE",
"631.22 570.491 OFFCURVE",
"631.22 392.098 OFFCURVE",
"521.222 282.071 CURVE",
"411.167 172.039 OFFCURVE",
"232.802 172.039 OFFCURVE",
"122.747 282.071 CURVE"
);
}
);
width = 644;
}
);
unicode = 0056;
},
{
glyphname = W;
lastChange = "2020-05-26 03:20:09 +0000";
layers = (
{
layerId = "D6F9CC2F-C077-49A9-BFA8-F00490525EAB";
paths = (
{
closed = 1;
nodes = (
"442.745 201.25 LINE",
"603.745 201.25 LINE",
"603.745 764.75 LINE",
"442.745 764.75 LINE"
);
},
{
closed = 1;
nodes = (
"241.495 201.25 LINE",
"402.495 201.25 LINE",
"402.495 764.75 LINE",
"241.495 764.75 LINE"
);
},
{
closed = 1;
nodes = (
"40.245 201.25 LINE",
"201.245 201.25 LINE",
"201.245 764.75 LINE",
"40.245 764.75 LINE"
);
},
{
closed = 1;
nodes = (
"402.495 36.041 OFFCURVE",
"366.442 0 OFFCURVE",
"321.995 0 CURVE",
"277.548 0 OFFCURVE",
"241.495 36.041 OFFCURVE",
"241.495 80.5 CURVE",
"241.495 124.959 OFFCURVE",
"277.548 161 OFFCURVE",
"321.995 161 CURVE",
"366.442 161 OFFCURVE",
"402.495 124.959 OFFCURVE",
"402.495 80.5 CURVE"
);
},
{
closed = 1;
nodes = (
"402.495 841.041 OFFCURVE",
"366.442 805 OFFCURVE",
"321.995 805 CURVE",
"277.548 805 OFFCURVE",
"241.495 841.041 OFFCURVE",
"241.495 885.5 CURVE",
"241.495 929.959 OFFCURVE",
"277.548 966 OFFCURVE",
"321.995 966 CURVE",
"366.442 966 OFFCURVE",
"402.495 929.959 OFFCURVE",
"402.495 885.5 CURVE"
);
}
);
width = 644;
}
);
unicode = 0057;
},
{
glyphname = X;
lastChange = "2020-05-26 03:20:09 +0000";
layers = (
{
layerId = "D6F9CC2F-C077-49A9-BFA8-F00490525EAB";
paths = (
{
closed = 1;
nodes = (
"442.745 603.754 LINE",
"603.745 603.754 LINE",
"603.745 764.754 LINE",
"442.745 764.754 LINE"
);
},
{
closed = 1;
nodes = (
"40.245 603.754 LINE",
"201.245 603.754 LINE",
"201.245 764.754 LINE",
"40.245 764.754 LINE"
);
},
{
closed = 1;
nodes = (
"442.745 201.254 LINE",
"603.745 201.254 LINE",
"603.745 362.254 LINE",
"442.745 362.254 LINE"
);
},
{
closed = 1;
nodes = (
"40.245 201.254 LINE",
"201.245 201.254 LINE",
"201.245 362.254 LINE",
"40.245 362.254 LINE"
);
}
);
width = 644;
}
);
unicode = 0058;
},
{
glyphname = Y;
lastChange = "2020-05-26 03:20:09 +0000";
layers = (
{
layerId = "D6F9CC2F-C077-49A9-BFA8-F00490525EAB";
paths = (
{
closed = 1;
nodes = (
"12.75 392.098 OFFCURVE",
"12.75 570.492 OFFCURVE",
"122.748 680.524 CURVE",
"208.135 595.142 LINE",
"145.288 532.265 OFFCURVE",
"145.288 430.324 OFFCURVE",
"208.135 367.454 CURVE",
"271.04 304.577 OFFCURVE",
"372.931 304.577 OFFCURVE",
"435.836 367.454 CURVE",
"498.683 430.324 OFFCURVE",
"498.683 532.265 OFFCURVE",
"435.836 595.142 CURVE",
"521.223 680.524 LINE",
"631.221 570.492 OFFCURVE",
"631.221 392.098 OFFCURVE",
"521.223 282.066 CURVE",
"411.168 172.04 OFFCURVE",
"232.803 172.04 OFFCURVE",
"122.748 282.066 CURVE"
);
},
{
closed = 1;
nodes = (
"199.51 483 LINE",
"199.51 416.311 OFFCURVE",
"253.618 362.25 OFFCURVE",
"320.26 362.25 CURVE",
"386.961 362.25 OFFCURVE",
"441.01 416.311 OFFCURVE",
"441.01 483 CURVE"
);
},
{
closed = 1;
nodes = (
"239.76 0 LINE",
"400.76 0 LINE",
"400.76 161 LINE",
"239.76 161 LINE"
);
},
{
closed = 1;
nodes = (
"239.76 805 LINE",
"400.76 805 LINE",
"400.76 966 LINE",
"239.76 966 LINE"
);
}
);
width = 644;
}
);
unicode = 0059;
},
{
glyphname = Z;
lastChange = "2020-05-26 03:20:09 +0000";
layers = (
{
layerId = "D6F9CC2F-C077-49A9-BFA8-F00490525EAB";
paths = (
{
closed = 1;
nodes = (
"241.505 805 LINE",
"402.505 805 LINE",
"402.505 966 LINE",
"241.505 966 LINE"
);
},
{
closed = 1;
nodes = (
"40.255 402.5 LINE",
"603.755 402.5 LINE",
"603.755 563.5 LINE",
"40.255 563.5 LINE"
);
},
{
closed = 1;
nodes = (
"241.505 0 LINE",
"402.505 0 LINE",
"402.505 161 LINE",
"241.505 161 LINE"
);
}
);
width = 644;
}
);
unicode = 005A;
},
{
glyphname = C_H;
lastChange = "2020-05-26 03:27:35 +0000";
layers = (
{
layerId = "D6F9CC2F-C077-49A9-BFA8-F00490525EAB";
paths = (
{
closed = 1;
nodes = (
"241.495 -0.208 LINE",
"402.495 -0.208 LINE",
"402.495 160.792 LINE",
"241.495 160.792 LINE"
);
},
{
closed = 1;
nodes = (
"388.683 362.042 OFFCURVE",
"442.745 416.103 OFFCURVE",
"442.745 482.792 CURVE",
"442.745 549.48 OFFCURVE",
"388.683 603.542 OFFCURVE",
"321.995 603.542 CURVE",
"255.307 603.542 OFFCURVE",
"201.245 549.48 OFFCURVE",
"201.245 482.792 CURVE",
"201.245 416.103 OFFCURVE",
"255.307 362.042 OFFCURVE",
"321.995 362.042 CURVE"
);
},
{
closed = 1;
nodes = (
"40.245 327.185 OFFCURVE",
"166.389 201.042 OFFCURVE",
"321.995 201.042 CURVE",
"321.995 321.792 LINE",
"233.077 321.792 OFFCURVE",
"160.995 393.874 OFFCURVE",
"160.995 482.792 CURVE",
"160.995 571.71 OFFCURVE",
"233.077 643.792 OFFCURVE",
"321.995 643.792 CURVE",
"366.454 643.792 OFFCURVE",
"406.704 625.771 OFFCURVE",
"435.839 596.636 CURVE",
"521.221 682.018 LINE",
"470.236 733.003 OFFCURVE",
"399.798 764.542 OFFCURVE",
"321.995 764.542 CURVE",
"166.389 764.542 OFFCURVE",
"40.245 638.398 OFFCURVE",
"40.245 482.792 CURVE"
);
},
{
closed = 1;
nodes = (
"241.495 804.792 LINE",
"402.495 804.792 LINE",
"402.495 965.792 LINE",
"241.495 965.792 LINE"
);
}
);
width = 644;
}
);
},
{
glyphname = S_T;
lastChange = "2020-05-26 03:30:55 +0000";
layers = (
{
layerId = "D6F9CC2F-C077-49A9-BFA8-F00490525EAB";
paths = (
{
closed = 1;
nodes = (
"243.005 0 LINE",
"404.005 0 LINE",
"404.005 161 LINE",
"243.005 161 LINE"
);
},
{
closed = 1;
nodes = (
"390.193 362.25 OFFCURVE",
"444.255 416.311 OFFCURVE",
"444.255 483 CURVE",
"444.255 549.688 OFFCURVE",
"390.193 603.75 OFFCURVE",
"323.505 603.75 CURVE",
"256.817 603.75 OFFCURVE",
"202.755 549.688 OFFCURVE",
"202.755 483 CURVE",
"202.755 416.311 OFFCURVE",
"256.817 362.25 OFFCURVE",
"323.505 362.25 CURVE"
);
},
{
closed = 1;
nodes = (
"321.481 322 LINE",
"410.399 322 OFFCURVE",
"482.481 394.082 OFFCURVE",
"482.481 483 CURVE",
"482.481 571.918 OFFCURVE",
"410.399 644 OFFCURVE",
"321.481 644 CURVE",
"277.022 644 OFFCURVE",
"236.772 625.979 OFFCURVE",
"207.637 596.845 CURVE",
"122.255 682.227 LINE",
"173.24 733.211 OFFCURVE",
"243.678 764.75 OFFCURVE",
"321.481 764.75 CURVE",
"477.088 764.75 OFFCURVE",
"603.231 638.606 OFFCURVE",
"603.231 483 CURVE",
"603.231 327.393 OFFCURVE",
"477.088 201.25 OFFCURVE",
"321.481 201.25 CURVE"
);
},
{
closed = 1;
nodes = (
"243.005 805 LINE",
"404.005 805 LINE",
"404.005 966 LINE",
"243.005 966 LINE"
);
}
);
width = 644;
}
);
},
{
glyphname = T_H;
lastChange = "2020-05-26 03:27:52 +0000";
layers = (
{
layerId = "D6F9CC2F-C077-49A9-BFA8-F00490525EAB";
paths = (
{
closed = 1;
nodes = (
"442.755 805 LINE",
"603.755 805 LINE",
"603.755 966 LINE",
"442.755 966 LINE"
);
},
{
closed = 1;
nodes = (
"40.255 805 LINE",
"201.255 805 LINE",
"201.255 966 LINE",
"40.255 966 LINE"
);
},
{
closed = 1;
nodes = (
"442.755 764.75 LINE",
"442.755 362.25 LINE",
"201.255 362.25 LINE",
"201.255 764.75 LINE",
"40.255 764.75 LINE",
"40.255 362.25 LINE",
"40.255 201.25 LINE",
"201.255 201.25 LINE",
"442.755 201.25 LINE",
"603.755 201.25 LINE",
"603.755 764.75 LINE"
);
},
{
closed = 1;
nodes = (
"241.505 0 LINE",
"402.505 0 LINE",
"402.505 161 LINE",
"241.505 161 LINE"
);
}
);
width = 644;
}
);
},
